<mxfile host="app.diagrams.net" modified="2023-04-07T17:30:02.308Z" agent="Mozilla/5.0 (Windows NT 10.0; Win64; x64) AppleWebKit/537.36 (KHTML, like Gecko) Chrome/111.0.0.0 Safari/537.36" etag="TD6pxsBUjTntviRMolp2" version="21.1.4" type="github">
  <diagram id="C5RBs43oDa-KdzZeNtuy" name="Page-1">
    <mxGraphModel dx="880" dy="448" grid="1" gridSize="10" guides="1" tooltips="1" connect="1" arrows="1" fold="1" page="1" pageScale="1" pageWidth="827" pageHeight="1169" math="0" shadow="0">
      <root>
        <mxCell id="WIyWlLk6GJQsqaUBKTNV-0" />
        <mxCell id="WIyWlLk6GJQsqaUBKTNV-1" parent="WIyWlLk6GJQsqaUBKTNV-0" />
        <mxCell id="2SWxDL8BZ0JXifuPJzlZ-59" value="start" style="shape=mxgraph.flowchart.terminator;strokeWidth=2;gradientColor=none;gradientDirection=north;fontStyle=0;html=1;" parent="WIyWlLk6GJQsqaUBKTNV-1" vertex="1">
          <mxGeometry x="161.5" y="250" width="120" height="30" as="geometry" />
        </mxCell>
        <mxCell id="2SWxDL8BZ0JXifuPJzlZ-60" value="Farmer Visits Web&lt;br&gt;Application" style="shape=mxgraph.flowchart.data;strokeWidth=2;gradientColor=none;gradientDirection=north;fontStyle=0;html=1;" parent="WIyWlLk6GJQsqaUBKTNV-1" vertex="1">
          <mxGeometry x="142" y="360" width="159" height="80" as="geometry" />
        </mxCell>
        <mxCell id="2SWxDL8BZ0JXifuPJzlZ-62" value="Farmers Logs into&lt;br&gt;the web application" style="shape=mxgraph.flowchart.data;strokeWidth=2;gradientColor=none;gradientDirection=north;fontStyle=0;html=1;" parent="WIyWlLk6GJQsqaUBKTNV-1" vertex="1">
          <mxGeometry x="142" y="520" width="159" height="80" as="geometry" />
        </mxCell>
        <mxCell id="2SWxDL8BZ0JXifuPJzlZ-63" value="Registered" style="shape=mxgraph.flowchart.decision;strokeWidth=2;gradientColor=none;gradientDirection=north;fontStyle=0;html=1;" parent="WIyWlLk6GJQsqaUBKTNV-1" vertex="1">
          <mxGeometry x="175" y="701.5" width="98" height="57" as="geometry" />
        </mxCell>
        <mxCell id="2SWxDL8BZ0JXifuPJzlZ-64" style="fontStyle=1;strokeColor=#003366;strokeWidth=1;html=1;rounded=0;" parent="WIyWlLk6GJQsqaUBKTNV-1" source="2SWxDL8BZ0JXifuPJzlZ-59" target="2SWxDL8BZ0JXifuPJzlZ-60" edge="1">
          <mxGeometry relative="1" as="geometry" />
        </mxCell>
        <mxCell id="2SWxDL8BZ0JXifuPJzlZ-65" style="fontStyle=1;strokeColor=#003366;strokeWidth=1;html=1;rounded=0;" parent="WIyWlLk6GJQsqaUBKTNV-1" source="2SWxDL8BZ0JXifuPJzlZ-60" target="2SWxDL8BZ0JXifuPJzlZ-62" edge="1">
          <mxGeometry relative="1" as="geometry" />
        </mxCell>
        <mxCell id="2SWxDL8BZ0JXifuPJzlZ-66" style="entryX=0.5;entryY=0;entryPerimeter=0;fontStyle=1;strokeColor=#003366;strokeWidth=1;html=1;rounded=0;" parent="WIyWlLk6GJQsqaUBKTNV-1" source="2SWxDL8BZ0JXifuPJzlZ-62" target="2SWxDL8BZ0JXifuPJzlZ-63" edge="1">
          <mxGeometry relative="1" as="geometry" />
        </mxCell>
        <mxCell id="2SWxDL8BZ0JXifuPJzlZ-68" value="no" style="text;fontStyle=0;html=1;strokeColor=none;gradientColor=none;fillColor=none;strokeWidth=2;" parent="WIyWlLk6GJQsqaUBKTNV-1" vertex="1">
          <mxGeometry x="290" y="701.5" width="40" height="26" as="geometry" />
        </mxCell>
        <mxCell id="2SWxDL8BZ0JXifuPJzlZ-69" value="" style="edgeStyle=elbowEdgeStyle;elbow=horizontal;fontColor=#001933;fontStyle=1;strokeColor=#003366;strokeWidth=1;html=1;rounded=0;entryX=0.5;entryY=0;entryDx=0;entryDy=0;entryPerimeter=0;" parent="WIyWlLk6GJQsqaUBKTNV-1" source="2SWxDL8BZ0JXifuPJzlZ-150" target="2SWxDL8BZ0JXifuPJzlZ-81" edge="1">
          <mxGeometry x="-100" y="390" width="100" height="100" as="geometry">
            <mxPoint x="-100" y="490" as="sourcePoint" />
            <mxPoint x="220" y="900" as="targetPoint" />
          </mxGeometry>
        </mxCell>
        <mxCell id="2SWxDL8BZ0JXifuPJzlZ-71" value="yes" style="text;fontStyle=0;html=1;strokeColor=none;gradientColor=none;fillColor=none;strokeWidth=2;align=center;" parent="WIyWlLk6GJQsqaUBKTNV-1" vertex="1">
          <mxGeometry x="220.75" y="757" width="40" height="26" as="geometry" />
        </mxCell>
        <mxCell id="2SWxDL8BZ0JXifuPJzlZ-81" value="&lt;font style=&quot;&quot;&gt;&lt;font style=&quot;font-size: 11px;&quot;&gt;1. Get organic farming&amp;nbsp;&lt;br&gt;recommendations&lt;br&gt;2. Connect to&lt;br&gt;Expert&lt;/font&gt;&lt;br&gt;&lt;/font&gt;" style="shape=mxgraph.flowchart.decision;strokeWidth=2;gradientColor=none;gradientDirection=north;fontStyle=0;html=1;" parent="WIyWlLk6GJQsqaUBKTNV-1" vertex="1">
          <mxGeometry x="161.5" y="950" width="118.5" height="120" as="geometry" />
        </mxCell>
        <mxCell id="2SWxDL8BZ0JXifuPJzlZ-87" value="" style="edgeStyle=elbowEdgeStyle;elbow=horizontal;exitX=0.5;exitY=1;exitPerimeter=0;fontStyle=1;strokeColor=#003366;strokeWidth=1;html=1;rounded=0;" parent="WIyWlLk6GJQsqaUBKTNV-1" source="2SWxDL8BZ0JXifuPJzlZ-81" edge="1">
          <mxGeometry x="-100" y="390" width="100" height="100" as="geometry">
            <mxPoint x="-100" y="490" as="sourcePoint" />
            <mxPoint x="221" y="1170" as="targetPoint" />
          </mxGeometry>
        </mxCell>
        <mxCell id="2SWxDL8BZ0JXifuPJzlZ-112" value="no" style="text;fontStyle=0;html=1;strokeColor=none;gradientColor=none;fillColor=none;strokeWidth=2;" parent="WIyWlLk6GJQsqaUBKTNV-1" vertex="1">
          <mxGeometry x="135" y="2014" width="40" height="26" as="geometry" />
        </mxCell>
        <mxCell id="2SWxDL8BZ0JXifuPJzlZ-116" value="1" style="text;fontStyle=0;html=1;strokeColor=none;gradientColor=none;fillColor=none;strokeWidth=2;" parent="WIyWlLk6GJQsqaUBKTNV-1" vertex="1">
          <mxGeometry x="240" y="1110" width="30" height="26" as="geometry" />
        </mxCell>
        <mxCell id="2SWxDL8BZ0JXifuPJzlZ-117" value="" style="edgeStyle=elbowEdgeStyle;elbow=horizontal;exitX=1;exitY=0.5;exitPerimeter=0;fontStyle=1;strokeColor=#003366;strokeWidth=1;html=1;rounded=0;exitDx=0;exitDy=0;entryX=0;entryY=0.5;entryDx=0;entryDy=0;" parent="WIyWlLk6GJQsqaUBKTNV-1" source="2SWxDL8BZ0JXifuPJzlZ-81" target="2SWxDL8BZ0JXifuPJzlZ-143" edge="1">
          <mxGeometry x="-45" y="-250" width="100" height="100" as="geometry">
            <mxPoint x="340" y="1010" as="sourcePoint" />
            <mxPoint x="440" y="1010" as="targetPoint" />
          </mxGeometry>
        </mxCell>
        <mxCell id="2SWxDL8BZ0JXifuPJzlZ-118" value="2" style="text;fontStyle=0;html=1;strokeColor=none;gradientColor=none;fillColor=none;strokeWidth=2;" parent="WIyWlLk6GJQsqaUBKTNV-1" vertex="1">
          <mxGeometry x="340" y="970" width="30" height="26" as="geometry" />
        </mxCell>
        <mxCell id="2SWxDL8BZ0JXifuPJzlZ-120" value="Input farm soil data&lt;br&gt;such as: EC, pH,&amp;nbsp;" style="shape=mxgraph.flowchart.data;strokeWidth=2;gradientColor=none;gradientDirection=north;fontStyle=0;html=1;" parent="WIyWlLk6GJQsqaUBKTNV-1" vertex="1">
          <mxGeometry x="140.5" y="1169" width="169.5" height="100" as="geometry" />
        </mxCell>
        <mxCell id="2SWxDL8BZ0JXifuPJzlZ-121" value="Pass the data to&amp;nbsp;&lt;br&gt;recommendation ML&amp;nbsp;&lt;br&gt;Model" style="shape=mxgraph.flowchart.data;strokeWidth=2;gradientColor=none;gradientDirection=north;fontStyle=0;html=1;" parent="WIyWlLk6GJQsqaUBKTNV-1" vertex="1">
          <mxGeometry x="110" y="1360" width="189.5" height="80" as="geometry" />
        </mxCell>
        <mxCell id="2SWxDL8BZ0JXifuPJzlZ-122" value="" style="edgeStyle=elbowEdgeStyle;elbow=horizontal;fontStyle=1;strokeColor=#003366;strokeWidth=1;html=1;rounded=0;entryX=0.586;entryY=-0.025;entryDx=0;entryDy=0;entryPerimeter=0;" parent="WIyWlLk6GJQsqaUBKTNV-1" target="2SWxDL8BZ0JXifuPJzlZ-121" edge="1">
          <mxGeometry x="-101" y="630" width="100" height="100" as="geometry">
            <mxPoint x="220" y="1270" as="sourcePoint" />
            <mxPoint x="220" y="1340" as="targetPoint" />
          </mxGeometry>
        </mxCell>
        <mxCell id="2SWxDL8BZ0JXifuPJzlZ-124" value="Display the organic&lt;br&gt;fertilizer&amp;nbsp;&lt;br&gt;recommendation" style="rounded=0;whiteSpace=wrap;html=1;" parent="WIyWlLk6GJQsqaUBKTNV-1" vertex="1">
          <mxGeometry x="160" y="1510" width="120" height="60" as="geometry" />
        </mxCell>
        <mxCell id="2SWxDL8BZ0JXifuPJzlZ-126" value="" style="edgeStyle=elbowEdgeStyle;elbow=horizontal;fontStyle=1;strokeColor=#003366;strokeWidth=1;html=1;rounded=0;" parent="WIyWlLk6GJQsqaUBKTNV-1" edge="1">
          <mxGeometry x="-101" y="800" width="100" height="100" as="geometry">
            <mxPoint x="220" y="1440" as="sourcePoint" />
            <mxPoint x="220" y="1510" as="targetPoint" />
          </mxGeometry>
        </mxCell>
        <mxCell id="2SWxDL8BZ0JXifuPJzlZ-127" value="Register" style="shape=mxgraph.flowchart.decision;strokeWidth=2;gradientColor=none;gradientDirection=north;fontStyle=0;html=1;" parent="WIyWlLk6GJQsqaUBKTNV-1" vertex="1">
          <mxGeometry x="515" y="680" width="130" height="100" as="geometry" />
        </mxCell>
        <mxCell id="2SWxDL8BZ0JXifuPJzlZ-129" value="Enter name, ID,&lt;br&gt;Crop Type,&lt;br&gt;Farm Location" style="shape=mxgraph.flowchart.data;strokeWidth=2;gradientColor=none;gradientDirection=north;fontStyle=0;html=1;" parent="WIyWlLk6GJQsqaUBKTNV-1" vertex="1">
          <mxGeometry x="520" y="530" width="120" height="60" as="geometry" />
        </mxCell>
        <mxCell id="2SWxDL8BZ0JXifuPJzlZ-130" style="fontStyle=1;strokeColor=#003366;strokeWidth=1;html=1;rounded=0;entryX=0.5;entryY=1;entryDx=0;entryDy=0;entryPerimeter=0;" parent="WIyWlLk6GJQsqaUBKTNV-1" target="2SWxDL8BZ0JXifuPJzlZ-129" edge="1">
          <mxGeometry relative="1" as="geometry">
            <mxPoint x="580" y="680" as="sourcePoint" />
            <mxPoint x="580" y="710" as="targetPoint" />
          </mxGeometry>
        </mxCell>
        <mxCell id="2SWxDL8BZ0JXifuPJzlZ-131" value="yes" style="text;fontStyle=0;html=1;strokeColor=none;gradientColor=none;fillColor=none;strokeWidth=2;" parent="WIyWlLk6GJQsqaUBKTNV-1" vertex="1">
          <mxGeometry x="590" y="640" width="40" height="26" as="geometry" />
        </mxCell>
        <mxCell id="2SWxDL8BZ0JXifuPJzlZ-132" value="" style="edgeStyle=elbowEdgeStyle;elbow=horizontal;exitX=0;exitY=1;fontStyle=1;strokeColor=#003366;strokeWidth=1;html=1;rounded=0;exitDx=0;exitDy=0;" parent="WIyWlLk6GJQsqaUBKTNV-1" edge="1">
          <mxGeometry x="20" y="-696.5" width="100" height="100" as="geometry">
            <mxPoint x="530" y="559.5" as="sourcePoint" />
            <mxPoint x="285" y="559.5" as="targetPoint" />
          </mxGeometry>
        </mxCell>
        <mxCell id="2SWxDL8BZ0JXifuPJzlZ-133" value="end" style="shape=mxgraph.flowchart.terminator;strokeWidth=2;gradientColor=none;gradientDirection=north;fontStyle=0;html=1;" parent="WIyWlLk6GJQsqaUBKTNV-1" vertex="1">
          <mxGeometry x="160" y="1680" width="120" height="40" as="geometry" />
        </mxCell>
        <mxCell id="2SWxDL8BZ0JXifuPJzlZ-139" value="" style="endArrow=none;html=1;rounded=0;" parent="WIyWlLk6GJQsqaUBKTNV-1" edge="1">
          <mxGeometry width="50" height="50" relative="1" as="geometry">
            <mxPoint x="760" y="1700" as="sourcePoint" />
            <mxPoint x="760" y="730" as="targetPoint" />
          </mxGeometry>
        </mxCell>
        <mxCell id="2SWxDL8BZ0JXifuPJzlZ-140" value="" style="endArrow=classic;html=1;rounded=0;entryX=1;entryY=0.5;entryDx=0;entryDy=0;entryPerimeter=0;" parent="WIyWlLk6GJQsqaUBKTNV-1" target="2SWxDL8BZ0JXifuPJzlZ-133" edge="1">
          <mxGeometry width="50" height="50" relative="1" as="geometry">
            <mxPoint x="760" y="1700" as="sourcePoint" />
            <mxPoint x="560" y="1700" as="targetPoint" />
            <Array as="points">
              <mxPoint x="590" y="1700" />
            </Array>
          </mxGeometry>
        </mxCell>
        <mxCell id="2SWxDL8BZ0JXifuPJzlZ-142" value="" style="edgeStyle=elbowEdgeStyle;elbow=horizontal;fontStyle=1;strokeColor=#003366;strokeWidth=1;html=1;rounded=0;exitX=0.5;exitY=1;exitDx=0;exitDy=0;entryX=0.5;entryY=0;entryDx=0;entryDy=0;entryPerimeter=0;" parent="WIyWlLk6GJQsqaUBKTNV-1" source="2SWxDL8BZ0JXifuPJzlZ-124" target="2SWxDL8BZ0JXifuPJzlZ-133" edge="1">
          <mxGeometry x="-101" y="960" width="100" height="100" as="geometry">
            <mxPoint x="220" y="1600" as="sourcePoint" />
            <mxPoint x="220" y="1670" as="targetPoint" />
          </mxGeometry>
        </mxCell>
        <mxCell id="2SWxDL8BZ0JXifuPJzlZ-143" value="Connect to experts at&lt;br&gt;Y-tech Shamba&amp;nbsp;&lt;br&gt;Solutions" style="rounded=0;whiteSpace=wrap;html=1;" parent="WIyWlLk6GJQsqaUBKTNV-1" vertex="1">
          <mxGeometry x="530" y="980" width="120" height="60" as="geometry" />
        </mxCell>
        <mxCell id="2SWxDL8BZ0JXifuPJzlZ-144" value="" style="endArrow=none;html=1;rounded=0;" parent="WIyWlLk6GJQsqaUBKTNV-1" edge="1">
          <mxGeometry width="50" height="50" relative="1" as="geometry">
            <mxPoint x="600" y="980" as="sourcePoint" />
            <mxPoint x="600" y="920" as="targetPoint" />
          </mxGeometry>
        </mxCell>
        <mxCell id="2SWxDL8BZ0JXifuPJzlZ-145" value="no" style="text;fontStyle=0;html=1;strokeColor=none;gradientColor=none;fillColor=none;strokeWidth=2;" parent="WIyWlLk6GJQsqaUBKTNV-1" vertex="1">
          <mxGeometry x="670" y="732.5" width="40" height="26" as="geometry" />
        </mxCell>
        <mxCell id="2SWxDL8BZ0JXifuPJzlZ-146" value="" style="edgeStyle=elbowEdgeStyle;elbow=horizontal;fontStyle=1;strokeColor=#003366;strokeWidth=1;html=1;rounded=0;" parent="WIyWlLk6GJQsqaUBKTNV-1" edge="1">
          <mxGeometry x="5" y="-340" width="100" height="100" as="geometry">
            <mxPoint x="600" y="920" as="sourcePoint" />
            <mxPoint x="220" y="920" as="targetPoint" />
          </mxGeometry>
        </mxCell>
        <mxCell id="2SWxDL8BZ0JXifuPJzlZ-149" value="" style="edgeStyle=elbowEdgeStyle;elbow=horizontal;exitX=0;exitY=1;fontStyle=1;strokeColor=#003366;strokeWidth=1;html=1;rounded=0;exitDx=0;exitDy=0;" parent="WIyWlLk6GJQsqaUBKTNV-1" edge="1">
          <mxGeometry x="8" y="-526.5" width="100" height="100" as="geometry">
            <mxPoint x="273" y="729.5" as="sourcePoint" />
            <mxPoint x="518" y="729.5" as="targetPoint" />
            <Array as="points">
              <mxPoint x="393" y="673.5" />
            </Array>
          </mxGeometry>
        </mxCell>
        <mxCell id="2SWxDL8BZ0JXifuPJzlZ-151" value="" style="edgeStyle=elbowEdgeStyle;elbow=horizontal;fontColor=#001933;fontStyle=1;strokeColor=#003366;strokeWidth=1;html=1;rounded=0;entryX=0.5;entryY=0;entryDx=0;entryDy=0;entryPerimeter=0;" parent="WIyWlLk6GJQsqaUBKTNV-1" source="2SWxDL8BZ0JXifuPJzlZ-63" target="2SWxDL8BZ0JXifuPJzlZ-150" edge="1">
          <mxGeometry x="-100" y="390" width="100" height="100" as="geometry">
            <mxPoint x="221" y="759" as="sourcePoint" />
            <mxPoint x="221" y="950" as="targetPoint" />
          </mxGeometry>
        </mxCell>
        <mxCell id="2SWxDL8BZ0JXifuPJzlZ-150" value="Was soil&lt;br&gt;tested?" style="rhombus;whiteSpace=wrap;html=1;" parent="WIyWlLk6GJQsqaUBKTNV-1" vertex="1">
          <mxGeometry x="180.75" y="783" width="80" height="80" as="geometry" />
        </mxCell>
        <mxCell id="2SWxDL8BZ0JXifuPJzlZ-152" value="yes" style="text;fontStyle=0;html=1;strokeColor=none;gradientColor=none;fillColor=none;strokeWidth=2;align=center;" parent="WIyWlLk6GJQsqaUBKTNV-1" vertex="1">
          <mxGeometry x="220.75" y="880" width="40" height="26" as="geometry" />
        </mxCell>
        <mxCell id="2SWxDL8BZ0JXifuPJzlZ-153" value="" style="edgeStyle=elbowEdgeStyle;elbow=horizontal;exitX=0;exitY=1;fontStyle=1;strokeColor=#003366;strokeWidth=1;html=1;rounded=0;exitDx=0;exitDy=0;entryX=0;entryY=0.375;entryDx=0;entryDy=0;entryPerimeter=0;" parent="WIyWlLk6GJQsqaUBKTNV-1" target="2SWxDL8BZ0JXifuPJzlZ-154" edge="1">
          <mxGeometry x="-4.25" y="-433.5" width="100" height="100" as="geometry">
            <mxPoint x="260.75" y="822.5" as="sourcePoint" />
            <mxPoint x="505.75" y="822.5" as="targetPoint" />
            <Array as="points">
              <mxPoint x="380.75" y="766.5" />
            </Array>
          </mxGeometry>
        </mxCell>
        <mxCell id="2SWxDL8BZ0JXifuPJzlZ-154" value="Connect to experts at&lt;br&gt;Y-tech Shamba&amp;nbsp;&lt;br&gt;Solutions" style="rounded=0;whiteSpace=wrap;html=1;" parent="WIyWlLk6GJQsqaUBKTNV-1" vertex="1">
          <mxGeometry x="510" y="800" width="120" height="60" as="geometry" />
        </mxCell>
        <mxCell id="2SWxDL8BZ0JXifuPJzlZ-157" value="" style="endArrow=none;html=1;rounded=0;" parent="WIyWlLk6GJQsqaUBKTNV-1" edge="1">
          <mxGeometry width="50" height="50" relative="1" as="geometry">
            <mxPoint x="645" y="729.5" as="sourcePoint" />
            <mxPoint x="760" y="730" as="targetPoint" />
          </mxGeometry>
        </mxCell>
        <mxCell id="EBEWh_KZYFdhPImdMf1g-3" value="no" style="text;fontStyle=0;html=1;strokeColor=none;gradientColor=none;fillColor=none;strokeWidth=2;" parent="WIyWlLk6GJQsqaUBKTNV-1" vertex="1">
          <mxGeometry x="280" y="800" width="40" height="26" as="geometry" />
        </mxCell>
      </root>
    </mxGraphModel>
  </diagram>
</mxfile>
